<svg xmlns="http://www.w3.org/2000/svg" width="14.042" height="19.805" viewBox="0 0 14.042 19.805">
  <g id="Group_89" data-name="Group 89" transform="translate(-123.922 -173.746)">
    <path id="Path_23" data-name="Path 23" d="M150.982,282.109h11.874v.212q0,6.6,0,13.2a2,2,0,0,1-2.055,2.061q-3.889,0-7.778,0a1.99,1.99,0,0,1-2.044-2.009q-.007-6.669,0-13.337C150.976,282.2,150.979,282.166,150.982,282.109Zm1.794,7.291q0,1.87,0,3.74c0,.64,0,1.28,0,1.92a.524.524,0,0,0,.533.534.531.531,0,0,0,.542-.526c0-.073,0-.147,0-.22q0-4.789,0-9.579c0-.513,0-1.027,0-1.54a.538.538,0,1,0-1.077-.009c0,.053,0,.107,0,.16Q152.776,286.64,152.776,289.4Zm4.68,0q0-2.03,0-4.06c0-.54,0-1.08,0-1.62a.534.534,0,0,0-.532-.538.54.54,0,0,0-.543.528c0,.06,0,.12,0,.18q0,4.22,0,8.439c0,.893,0,1.786,0,2.68a.539.539,0,0,0,.663.572.55.55,0,0,0,.416-.6Q157.456,292.19,157.456,289.4Zm3.6-.011q0-2.13,0-4.26c0-.467,0-.933,0-1.4a.538.538,0,1,0-1.077-.009c0,.053,0,.107,0,.16q0,4.629,0,9.259c0,.64,0,1.28,0,1.92a.524.524,0,0,0,.532.534.531.531,0,0,0,.542-.525c0-.08,0-.16,0-.24Q161.056,292.109,161.055,289.389Z" transform="translate(-25.971 -104.028)" fill="#7e7e7e"/>
    <path id="Path_24" data-name="Path 24" d="M123.929,177.379c0-.361-.018-.708,0-1.053a1.181,1.181,0,0,1,1.192-1.093c1.013-.006,2.026,0,3.039,0h.179a5.457,5.457,0,0,1,.261-.717,1.349,1.349,0,0,1,1.263-.763c.693,0,1.387.019,2.079-.005a1.5,1.5,0,0,1,1.541,1.372c0,.026.008.053.016.112h.206c.993,0,1.986,0,2.979,0a1.2,1.2,0,0,1,1.276,1.277c0,.286,0,.571,0,.87Zm5.283-2.158h3.465a.664.664,0,0,0-.7-.669q-1.03,0-2.059,0A.664.664,0,0,0,129.212,175.221Z" fill="#7e7e7e"/>
  </g>
</svg>
