<svg xmlns="http://www.w3.org/2000/svg" width="20" height="20" viewBox="0 0 39.044 39.044">
  <path id="Path_75" data-name="Path 75" d="M301.267,428.934h-27.49c-.264-.06-.534-.1-.791-.182a3.661,3.661,0,0,1-2.547-3.563q0-7.007,0-14.013a4.664,4.664,0,0,1,.275-1.9c-.075-.026-.137-.045-.2-.067a3.641,3.641,0,0,1-2.414-2.619c-.042-.158-.067-.321-.1-.481v-5.618a1.322,1.322,0,0,0,.038-.152,3.616,3.616,0,0,1,3.023-3.068,18.519,18.519,0,0,1,1.946-.061c.076,0,.152,0,.236,0-.2-.392-.4-.751-.561-1.126a4.28,4.28,0,0,1-.269-3.1,4.424,4.424,0,0,1,3.146-2.89c.313-.1.644-.135.967-.2h1.036a.454.454,0,0,0,.092.031,9.053,9.053,0,0,1,3.113.913,18.245,18.245,0,0,1,5.926,4.646c.285.33.55.677.833,1.027.038-.048.072-.086.1-.127a19.079,19.079,0,0,1,5.064-4.675,11.831,11.831,0,0,1,3.776-1.638c.335-.073.675-.119,1.013-.177h1a.821.821,0,0,0,.131.036,4.834,4.834,0,0,1,2.491.961,3.874,3.874,0,0,1,1.678,3.633,5.946,5.946,0,0,1-.845,2.422c-.048.083-.1.166-.159.275.582,0,1.126-.006,1.669,0a3.64,3.64,0,0,1,3.448,2.616c.063.215.1.436.154.654v5.618c-.013.05-.029.1-.037.15a3.5,3.5,0,0,1-1.494,2.44,11.252,11.252,0,0,1-1.157.629,4.658,4.658,0,0,1,.255,1.84q-.007,5.418,0,10.837c0,1.089.007,2.178,0,3.266a3.654,3.654,0,0,1-2.549,3.484C301.8,428.835,301.532,428.875,301.267,428.934Zm-12.386-2.7c.079,0,.137.008.2.008q5.637,0,11.274,0a1.2,1.2,0,0,0,1.311-1.317q0-7.121,0-14.242a1.19,1.19,0,0,0-1.285-1.275h-11.5Zm-2.718-16.827H274.689a1.2,1.2,0,0,0-1.3,1.3q0,7.119,0,14.239a1.248,1.248,0,0,0,1.292,1.3c3.757-.015,7.515-.007,11.272-.007.071,0,.141-.006.219-.01Zm2.716-2.7h14.137c.093,0,.186,0,.279-.009a1.123,1.123,0,0,0,1.05-1.1q.014-2.251,0-4.5a1.08,1.08,0,0,0-.776-1.045,1.793,1.793,0,0,0-.528-.073q-6.972-.006-13.944,0h-.217Zm-2.717.009v-6.733H271.994a2.383,2.383,0,0,0-.318.017,1.112,1.112,0,0,0-.974,1.068c-.01,1.521-.007,3.041,0,4.561a1.045,1.045,0,0,0,.535.9,1.422,1.422,0,0,0,.8.186h14.123Zm3.935-9.58.04.065h.233c2.57,0,5.14-.012,7.709.011a1.12,1.12,0,0,0,1.019-.476,6.346,6.346,0,0,0,1.188-2.12,1.515,1.515,0,0,0-.543-1.7,2.726,2.726,0,0,0-2.011-.582,6.291,6.291,0,0,0-2.012.522,14.37,14.37,0,0,0-4.185,2.826C291.037,396.155,290.575,396.658,290.1,397.146Zm-5.152.07c-.054-.071-.081-.114-.114-.152a17.1,17.1,0,0,0-3.421-3.051,9.359,9.359,0,0,0-3.742-1.632,2.864,2.864,0,0,0-2.207.423,1.556,1.556,0,0,0-.665,1.957,6.49,6.49,0,0,0,1.44,2.313.409.409,0,0,0,.343.146q3.643-.006,7.287,0Z" transform="translate(-268 -389.89)" fill="#fff"/>
</svg>
