<svg xmlns="http://www.w3.org/2000/svg" width="21.14" height="19.919" viewBox="0 0 21.14 19.919">
  <path id="Path_73" data-name="Path 73" d="M100.115,224.488c.142-.126.271-.253.413-.366a5.407,5.407,0,0,1,5.5-.964,5.318,5.318,0,0,1,3.6,4.313,5.4,5.4,0,0,1-1.605,4.952q-2.752,2.772-5.522,5.526-1.075,1.076-2.15,2.152a1.677,1.677,0,0,0-.147.2,1.3,1.3,0,0,1-.123-.091c-2.65-2.683-5.331-5.337-7.94-8.059a5.5,5.5,0,0,1,2.368-9.057,5.443,5.443,0,0,1,5.432,1.241C100,224.383,100.054,224.433,100.115,224.488Z" transform="translate(-89.591 -221.781)" fill="none" stroke="#707070" stroke-width="2"/>
</svg>
